<svg xmlns="http://www.w3.org/2000/svg" version="1.1" xmlns:xlink="http://www.w3.org/1999/xlink" xmlns:svgjs="http://svgjs.dev/svgjs" width="1500" height="2684" viewBox="0 0 1500 2684"><g transform="matrix(1,0,0,1,-2.0662093985604315,1.0866396761132364)"><svg viewBox="0 0 138 247" data-background-color="#000000" preserveAspectRatio="xMidYMid meet" height="2684" width="1500" xmlns="http://www.w3.org/2000/svg" xmlns:xlink="http://www.w3.org/1999/xlink"><g id="tight-bounds" transform="matrix(1,0,0,1,0.19009126466755788,-0.09999999999999432)"><svg viewBox="0 0 137.6198174706649 247.2" height="247.2" width="137.6198174706649"><g><svg viewBox="0 0 137.6198174706649 247.2" height="247.2" width="137.6198174706649"><g><svg viewBox="0 0 137.6198174706649 247.2" height="247.2" width="137.6198174706649"><g id="textblocktransform"><svg viewBox="0 0 137.6198174706649 247.2" height="247.2" width="137.6198174706649" id="textblock"><g><svg viewBox="0 0 137.6198174706649 247.2" height="247.2" width="137.6198174706649"><g transform="matrix(1,0,0,1,0,0)"><svg width="137.6198174706649" viewBox="-1.35 -38.3 21.35 38.35" height="247.2" data-palette-color="#3cff00"><path d="M5.25 0.05L5.25 0.05Q3.85 0.05 2.23-0.55 0.6-1.15-1.35-2.6L-1.35-2.6 2.1-10.3Q2.35-9.8 3.08-9.43 3.8-9.05 4.65-9.05L4.65-9.05Q5.3-9.05 5.8-10.1 6.3-11.15 6.63-12.65 6.95-14.15 7.15-15.48 7.35-16.8 7.4-17.35L7.4-17.35Q7.9-19.8 8.35-22.2 8.8-24.6 9.2-27.05L9.2-27.05Q9.6-29.45 10.13-31.85 10.65-34.25 11.2-36.65L11.2-36.65Q13.45-36.85 15.63-37.27 17.8-37.7 20-38.3L20-38.3Q19.25-35.75 18.45-32.52 17.65-29.3 16.9-25.85 16.15-22.4 15.48-19.15 14.8-15.9 14.3-13.3L14.3-13.3Q13.85-11.2 13.2-8.88 12.55-6.55 11.5-4.53 10.45-2.5 8.93-1.23 7.4 0.05 5.25 0.05Z" opacity="1" transform="matrix(1,0,0,1,0,0)" fill="#3cff00" class="wordmark-text-0" data-fill-palette-color="primary" id="text-0"></path></svg></g></svg></g></svg></g></svg></g><g></g></svg></g><defs></defs></svg><rect width="137.6198174706649" height="247.2" fill="none" stroke="none" visibility="hidden"></rect></g></svg></g></svg>