<svg width="396" height="130" viewBox="0 0 396 130" fill="none" xmlns="http://www.w3.org/2000/svg">
<g clip-path="url(#clip0_56_132)">
<path d="M38.2481 15.7948C37.5084 13.9834 36.2432 13.0655 34.5725 13.0655C32.7827 13.0655 31.5175 13.9834 30.8729 15.7948H30.8009V13.8862C30.7769 13.5721 30.5866 13.403 30.2754 13.3796H27.6507C27.2684 13.3796 27.0781 13.5721 27.0781 13.9105V28.6214C27.1261 28.9112 27.2693 29.0569 27.6267 29.0804L30.4434 29.0569C30.8009 29.0569 30.968 28.9112 30.9929 28.5486V20.7953C30.9689 19.4905 31.016 18.597 31.1832 18.138C31.4695 17.1725 32.019 16.7369 32.9259 16.7369C33.8088 16.7369 34.3822 17.1716 34.5725 18.138C34.6437 18.4764 34.6917 19.3699 34.6917 20.7953V28.5486C34.6437 28.8635 34.8348 29.0569 35.1931 29.0804L38.033 29.0569C38.4144 29.0569 38.5576 28.9112 38.5576 28.5486V20.7953C38.5576 19.3214 38.6296 18.3792 38.8439 17.9689C38.963 17.5819 39.2013 17.2922 39.5356 17.0753C39.8219 16.8575 40.1562 16.7369 40.5377 16.7612C41.4686 16.7612 42.0181 17.1725 42.1612 18.0417C42.2572 18.2595 42.2572 19.1773 42.2572 20.7962V28.5494C42.2572 28.8643 42.4484 29.0578 42.7818 29.0812L45.5985 29.0578C45.98 29.0578 46.1471 28.9121 46.1471 28.5494V16.8575C46.076 15.9397 45.8128 15.2144 45.4545 14.6835C44.6676 13.5964 43.5927 13.0646 42.1604 13.0646C41.2775 13.0646 40.5368 13.2815 39.8451 13.7656C39.1311 14.2003 38.5585 14.9012 38.2481 15.7948ZM64.9084 13.3553C64.5261 13.3553 64.383 13.5001 64.383 13.8862V15.964C64.383 16.3257 64.5741 16.5192 64.9324 16.5192H69.8013L64.1927 24.5865C63.9784 24.9491 63.8584 25.408 63.8584 26.0604V28.1616C63.8584 28.3308 63.9064 28.5008 64.0727 28.5737C64.2158 28.7177 64.359 28.7411 64.5021 28.6448C66.0296 27.825 67.7243 27.4129 69.5381 27.4381C71.3048 27.4858 72.8794 27.8484 74.3598 28.6448L74.8372 28.5737C74.9804 28.5008 75.0515 28.3551 75.0515 28.1616V25.9164C74.9804 25.5538 74.8372 25.2623 74.5509 25.0949C73.1426 24.2967 71.3528 23.9107 69.2287 23.9835L74.0503 17.0258C74.5278 16.35 74.7661 15.9145 74.7661 15.649V13.8853C74.7661 13.4993 74.5749 13.3544 74.2406 13.3544H64.9084V13.3553ZM102.238 14.8049C101.522 13.6207 100.425 13.0655 98.9199 13.0655C97.9659 13.0655 97.179 13.3075 96.5575 13.8142C95.9849 14.2974 95.4843 14.9975 95.0772 16.0368H95.03V13.7899C94.9635 13.5605 94.7633 13.397 94.5277 13.3796H91.879C91.5438 13.3796 91.3535 13.5244 91.3535 13.8628V28.5486C91.3304 28.8635 91.5207 29.0569 91.8559 29.0804L94.6717 29.0569C95.03 29.0569 95.1955 28.9112 95.2443 28.5486V20.6504C95.2443 19.4662 95.3866 18.5484 95.6978 17.8726C96.0312 17.0753 96.5567 16.7127 97.3453 16.7127C98.1793 16.6641 98.6817 17.1473 98.9191 18.066C99.0142 18.4764 99.0862 19.3222 99.1102 20.6504V28.6448C99.1102 28.9346 99.3031 29.0569 99.5894 29.0804L102.428 29.0569C102.74 29.0569 102.931 28.9346 102.978 28.6448V19.3942C102.978 17.123 102.716 15.6013 102.238 14.8049Z" fill="black"/>
<path d="M24.3973 30.6363C24.2546 30.8599 24.3025 31.0852 24.564 31.3087C27.7447 34.3297 31.4203 36.7252 35.4141 38.3801C39.5543 40.0728 43.8851 40.9196 48.4774 40.9196C51.9645 40.8722 55.4297 40.336 58.7806 39.3252C62.397 38.1816 65.5144 36.6113 68.06 34.62C68.4651 34.2972 68.6078 33.9717 68.3455 33.5997C68.1318 33.2 67.7507 33.1508 67.2986 33.3502C61.3981 35.9648 55.306 37.2346 49.0482 37.2346C44.7414 37.2346 40.5063 36.6373 36.3421 35.4668C32.2976 34.3213 28.5376 32.7287 25.0878 30.6113C24.8015 30.4128 24.5631 30.4369 24.3973 30.6363Z" fill="black"/>
<path d="M72.428 30.4773C72.2631 30.2827 71.9104 30.1158 71.2744 29.9705L69.1314 29.7776C67.0121 29.8009 65.2927 30.3078 63.9269 31.2472C63.7155 31.4401 63.5971 31.6321 63.6681 31.8016C63.6681 31.9452 63.8094 32.0179 64.0682 31.9686C67.7419 31.5594 69.7665 31.6321 70.2148 32.2099C70.6622 32.811 70.1674 34.8584 68.8253 38.3269C68.684 38.5683 68.7551 38.7361 68.8963 38.8087C69.0604 38.858 69.249 38.8321 69.4612 38.6401C70.7332 37.5571 71.6516 35.9915 72.2402 33.9433C72.4517 33.1259 72.5701 32.3785 72.6174 31.703C72.6166 31.0551 72.5701 30.6443 72.428 30.4773Z" fill="black"/>
<path d="M17.4798 18.9355L16.9055 19.0086C15.8042 19.1556 14.9178 19.4011 14.2721 19.6704C13.3144 20.1113 12.5965 20.6992 12.0695 21.4843C11.4952 22.3169 11.208 23.2726 11.208 24.4009C11.208 25.8469 11.6155 26.9743 12.4529 27.806C13.1949 28.5902 14.2248 28.9334 15.4938 28.9334C16.2598 28.9334 16.9064 28.8357 17.4807 28.6632C17.6483 28.6148 17.816 28.5655 17.9595 28.4916C18.6301 28.1976 19.348 27.6335 20.1381 26.8256L20.8328 27.7813L21.7905 28.7873C22.0536 28.9096 22.2694 28.885 22.4611 28.7134L24.6397 26.7763C24.8787 26.6064 24.8787 26.3125 24.6397 26.0185L23.9218 24.8911C23.6828 24.4009 23.5865 23.9107 23.5865 23.3474V18.8141C23.5865 17.4411 23.5143 16.51 23.467 16.0937C23.3235 15.1626 22.9159 14.3784 22.3184 13.8143C21.3607 12.8347 19.924 12.3683 18.0567 12.3683H17.4824C16.1661 12.4413 15.0407 12.7608 14.107 13.3241C12.7899 14.0836 11.9998 15.2603 11.7127 16.8286C11.6172 17.1472 11.7608 17.3426 12.1193 17.4411L14.8481 17.7104C15.1353 17.7104 15.3029 17.5388 15.3511 17.1718C15.4947 16.6323 15.7577 16.1914 16.2125 15.8975C16.5478 15.6273 16.9786 15.4803 17.4815 15.4565C17.5297 15.4319 17.577 15.4319 17.6251 15.4319C18.3671 15.4319 18.9181 15.7012 19.2534 16.2161C19.4211 16.4361 19.5406 16.7802 19.5647 17.2449L19.5887 18.6909L17.4798 18.9355ZM17.4798 25.9921C17.3603 26.0176 17.2167 26.0176 17.0964 26.0176C16.5461 26.0176 16.1154 25.8196 15.8274 25.428C15.5162 25.0856 15.3485 24.5717 15.3485 23.9089C15.3485 22.5615 16.0664 21.6788 17.4789 21.2871C18.0533 21.1155 18.772 21.0425 19.5853 21.0425V21.6304C19.5612 22.4145 19.5372 22.954 19.5372 23.2471C19.4658 23.7857 19.2741 24.2522 19.0342 24.694C18.6293 25.4544 18.1263 25.8698 17.4798 25.9921ZM54.7254 18.9355L54.1511 19.0086C53.0498 19.1556 52.1643 19.4011 51.5177 19.6704C50.56 20.1113 49.8421 20.6992 49.3151 21.4843C48.7408 22.3169 48.4528 23.2726 48.4528 24.4009C48.4528 25.8469 48.8603 26.9743 49.6977 27.806C50.4396 28.5902 51.4696 28.9334 52.7377 28.9334C53.5037 28.9334 54.1503 28.8357 54.7246 28.6632C54.8922 28.6148 55.0599 28.5655 55.2034 28.4916C55.8732 28.1976 56.5919 27.6335 57.382 26.8256L58.0767 27.7813L59.0344 28.7873C59.2975 28.9096 59.5133 28.885 59.7042 28.7134L61.8828 26.7763C62.1218 26.6064 62.1218 26.3125 61.8828 26.0185L61.1649 24.8911C60.9259 24.4009 60.8296 23.9107 60.8296 23.3474V18.8141C60.8296 17.4411 60.7582 16.51 60.7101 16.0937C60.5665 15.1626 60.159 14.3784 59.5606 13.8143C58.6037 12.8347 57.1671 12.3683 55.2997 12.3683H54.7254C53.4092 12.4413 52.2838 12.7608 51.3501 13.3241C50.0338 14.0836 49.2437 15.2603 48.9566 16.8286C48.8611 17.1472 49.0047 17.3426 49.3641 17.4411L52.0929 17.7104C52.3801 17.7104 52.5477 17.5388 52.5959 17.1718C52.7394 16.6323 53.0034 16.1914 53.4573 15.8975C53.7926 15.6273 54.2233 15.4803 54.7263 15.4565C54.7744 15.4319 54.8217 15.4319 54.8699 15.4319C55.6118 15.4319 56.162 15.7012 56.4973 16.2161C56.665 16.4361 56.7845 16.7802 56.8086 17.2449L56.8326 18.6909L54.7254 18.9355ZM54.7254 25.9921C54.6059 26.0176 54.4623 26.0176 54.3428 26.0176C53.7917 26.0176 53.361 25.8196 53.0739 25.428C52.7626 25.0856 52.595 24.5717 52.595 23.9089C52.595 22.5615 53.3129 21.6788 54.7254 21.2871C55.2997 21.1155 56.0185 21.0425 56.8326 21.0425V21.6304C56.8086 22.4145 56.7845 22.954 56.7845 23.2471C56.7123 23.7857 56.5206 24.2522 56.2816 24.694C55.8749 25.4544 55.3719 25.8698 54.7254 25.9921ZM82.7142 12.4897C80.7274 12.4897 79.1231 13.2985 77.9745 14.8915C76.8732 16.3613 76.2989 18.3221 76.2989 20.7485C76.2989 23.1503 76.8732 25.0865 77.9745 26.6302C79.0999 28.2716 80.7033 29.0812 82.7142 29.0812H82.7624C84.6779 29.0557 86.234 28.2478 87.4316 26.7041C88.5802 25.1604 89.1778 23.2726 89.1778 20.9448C89.1778 18.47 88.6034 16.5091 87.527 14.9654C86.3535 13.3232 84.7492 12.4906 82.7624 12.4906L82.7142 12.4897ZM82.7615 25.9437H82.7134C81.7324 25.9437 81.085 25.2581 80.7506 23.8359C80.607 23.0517 80.5116 21.8997 80.5116 20.2821C80.5116 18.9831 80.607 17.9534 80.8228 17.2431C81.1581 16.1157 81.8046 15.5278 82.7383 15.5278H82.7624C83.6479 15.5525 84.2704 16.0673 84.5824 17.0231C84.8696 17.9542 84.9891 19.2533 84.9891 20.9439C84.9891 22.3406 84.8937 23.4434 84.6779 24.1536C84.3185 25.3558 83.672 25.9437 82.7615 25.9437Z" fill="black"/>
</g>
<g clip-path="url(#clip1_56_132)">
<path d="M183.76 43.0742H180.336V29.9419H183.76V43.0742Z" fill="black"/>
<mask id="mask0_56_132" style="mask-type:luminance" maskUnits="userSpaceOnUse" x="157" y="0" width="82" height="48">
<path d="M157.082 47.9023L238.546 47.9023V0.925664L157.082 0.925664V47.9023Z" fill="white"/>
</mask>
<g mask="url(#mask0_56_132)">
<path d="M210.434 33.3651C210.297 33.2945 209.224 32.6512 207.63 32.6512C205.475 32.6512 203.98 34.1686 203.98 36.2172C203.98 38.2037 205.411 39.7863 207.63 39.7863C209.197 39.7863 210.287 39.1558 210.434 39.0767V42.6651C210.016 42.7826 208.877 43.1406 207.397 43.1406C203.648 43.1406 200.357 40.5247 200.357 36.2161C200.357 32.2249 203.334 29.2969 207.397 29.2969C208.959 29.2969 210.118 29.6816 210.434 29.7767V33.3651ZM175.644 33.3651C175.51 33.2945 174.438 32.6512 172.844 32.6512C170.685 32.6512 169.191 34.1686 169.191 36.2172C169.191 38.2037 170.623 39.7863 172.844 39.7863C174.411 39.7863 175.501 39.1558 175.644 39.0767V42.6651C175.23 42.7826 174.092 43.1406 172.604 43.1406C168.858 43.1406 165.571 40.5247 165.571 36.2161C165.571 32.2249 168.548 29.2969 172.605 29.2969C174.173 29.2969 175.331 29.6816 175.644 29.7767V33.3651ZM220.919 32.7015C218.941 32.7015 217.473 34.2766 217.473 36.2172C217.473 38.162 218.941 39.736 220.919 39.736C222.894 39.736 224.367 38.162 224.367 36.2172C224.367 34.2766 222.894 32.7015 220.919 32.7015ZM227.898 36.2172C227.898 40.0417 224.981 43.1406 220.92 43.1406C216.856 43.1406 213.943 40.0417 213.943 36.2161C213.943 32.3991 216.857 29.2969 220.919 29.2969C224.981 29.2969 227.898 32.3991 227.898 36.2172ZM196.198 32.5732C196.149 32.5572 194.746 32.165 193.593 32.165C192.257 32.165 191.531 32.6181 191.531 33.2603C191.531 34.0746 192.511 34.3589 193.059 34.5341L193.978 34.8301C196.142 35.5268 197.128 37.0261 197.128 38.6546C197.128 42.0132 194.209 43.1417 191.659 43.1417C189.886 43.1417 188.225 42.8104 188.062 42.7762V39.6986C188.355 39.7734 189.753 40.1966 191.209 40.1966C192.868 40.1966 193.63 39.7051 193.63 38.9485C193.63 38.271 192.97 37.8799 192.143 37.617C191.943 37.5486 191.639 37.4524 191.432 37.3841C189.576 36.7899 188.028 35.685 188.028 33.473C188.028 30.9725 189.878 29.2937 192.95 29.2937C194.573 29.2937 196.099 29.6923 196.198 29.719V32.5722V32.5732Z" fill="black"/>
<path d="M162.036 15.1668C162.036 14.2457 161.293 13.4988 160.382 13.4988C159.471 13.4988 158.727 14.2457 158.727 15.1658V18.6761C158.749 19.5847 159.483 20.3094 160.381 20.3094C161.279 20.3094 162.014 19.5847 162.036 18.6761V15.1668ZM171.125 10.5612C171.125 9.63609 170.384 8.88616 169.47 8.88616C168.556 8.88616 167.815 9.63609 167.815 10.5612V18.6761C167.815 19.6012 168.556 20.3511 169.47 20.3511C170.384 20.3511 171.125 19.6012 171.125 18.6761V10.5601V10.5612ZM180.215 4.2586C180.215 3.33747 179.472 2.58945 178.561 2.58945C177.649 2.58945 176.905 3.33747 176.905 4.2586V22.0112C176.928 22.9198 177.662 23.6445 178.56 23.6445C179.458 23.6445 180.193 22.9198 180.215 22.0112V4.2586ZM189.304 10.5612C189.304 9.63609 188.563 8.88616 187.649 8.88616C186.735 8.88616 185.994 9.63609 185.994 10.5612V18.6761C185.994 19.6012 186.735 20.3511 187.649 20.3511C188.563 20.3511 189.304 19.6012 189.304 18.6761V10.5601V10.5612ZM198.384 15.1668C198.384 14.2466 197.648 13.4999 196.739 13.4988C195.828 13.4982 195.088 14.2437 195.084 15.1658V18.6761C195.084 19.5983 195.823 20.3458 196.734 20.3458C197.645 20.3458 198.384 19.5983 198.384 18.6761V15.1668ZM207.477 10.5612C207.454 9.6555 206.722 8.93321 205.827 8.93321C204.932 8.93321 204.2 9.6555 204.177 10.5612V18.6761C204.177 19.5983 204.916 20.3458 205.827 20.3458C206.738 20.3458 207.477 19.5983 207.477 18.6761V10.5601V10.5612ZM216.572 4.2586C216.572 3.33646 215.833 2.58891 214.922 2.58891C214.011 2.58891 213.273 3.33646 213.273 4.2586V22.0112C213.246 22.6252 213.555 23.2044 214.076 23.5194C214.597 23.8344 215.247 23.8344 215.769 23.5194C216.29 23.2044 216.598 22.6252 216.572 22.0112V4.2586ZM225.665 10.5612C225.665 9.63899 224.927 8.8899 223.995 8.8899C223.084 8.89049 222.346 9.6381 222.346 10.5601V18.6761C222.346 19.6026 223.085 20.3495 223.995 20.3495C224.927 20.3495 225.665 19.6026 225.665 18.6761V10.5601V10.5612ZM234.741 15.1668C234.741 14.2438 234.002 13.4956 233.09 13.4956C232.178 13.4956 231.439 14.2438 231.439 15.1668V18.6761C231.439 19.6026 232.179 20.3506 233.09 20.3506C234 20.3506 234.74 19.6026 234.74 18.6761V15.1668H234.741Z" fill="black"/>
<path d="M232.833 41.1423V41.3517H232.244V42.9023H232.001V41.3528H231.41V41.1423H232.833ZM232.957 41.1423H233.336L233.856 42.586H233.865L234.368 41.1434H234.74V42.9023H234.492V41.4597H234.483L233.956 42.9023H233.726L233.211 41.4597H233.2V42.9023H232.957V41.1423Z" fill="black"/>
</g>
</g>
<g clip-path="url(#clip2_56_132)">
<path d="M370.697 35.2571C371.961 35.3808 373.225 35.5137 374.485 35.6511L377.268 28.7153L379.914 36.2908C381.271 36.4625 382.628 36.6426 383.98 36.8308L379.342 23.5464L383.982 11.9835H380.053L380.012 12.0403L377.505 18.2869L375.305 11.9844H371.425L375.431 23.456L370.697 35.2571ZM367.763 34.9853V11.9835H363.884V34.6626C365.178 34.7633 366.472 34.8717 367.763 34.9853ZM338.63 33.6991C339.677 33.6991 340.722 33.707 341.766 33.7156V25.2651H346.425V21.6665H341.767V15.5864H347.132V11.9835H337.873V33.7021C338.125 33.7021 338.377 33.6982 338.63 33.6991ZM326.589 33.919C327.881 33.8725 329.174 33.8335 330.469 33.8017V15.587H334.094V11.9844H322.964V15.587H326.589L326.589 33.919ZM296.928 36.3443V22.6404L301.52 35.7909C302.932 35.6309 304.347 35.4804 305.765 35.3381V11.9838H302.044V26.1788L297.089 11.9838H293.208V36.8369H293.231C294.461 36.6652 295.694 36.5022 296.928 36.3443ZM319.224 15.5861V11.9838H309.964V34.9487C313.045 34.6803 316.13 34.4552 319.217 34.2735V30.6679C317.427 30.7729 315.64 30.8939 313.858 31.0285V25.2666H318.517V21.6659H313.858V15.5861H319.224ZM354.818 30.4956V11.9826H350.923V33.9321C354.022 34.0469 357.108 34.2069 360.184 34.4085V30.8007C358.399 30.6844 356.611 30.5836 354.818 30.4956Z" fill="black"/>
</g>
<mask id="mask1_56_132" style="mask-type:luminance" maskUnits="userSpaceOnUse" x="17" y="97" width="78" height="15">
<path d="M94.6477 97.6667H17.6689V111.471H94.6477V97.6667Z" fill="white"/>
</mask>
<g mask="url(#mask1_56_132)">
<path d="M45.1378 111.317C42.3604 111.317 39.7822 110.484 38.0613 108.94C36.7611 107.773 36.1364 106.188 36.1364 104.557C36.1364 102.946 36.788 101.35 38.0611 100.189C39.6594 98.7329 42.4811 97.8209 45.1378 97.8209C48.0778 97.8209 50.4309 98.5613 52.2297 100.193C53.5096 101.354 54.1283 102.943 54.1283 104.557C54.1283 106.122 53.4717 107.787 52.2297 108.94C50.5546 110.494 47.9223 111.317 45.1378 111.317V109.537C46.6119 109.537 47.9794 109.028 48.9344 108.078C49.8828 107.134 50.3246 105.974 50.3246 104.557C50.3246 103.199 49.848 101.929 48.9344 101.029C47.9922 100.101 46.5921 99.5789 45.1378 99.5789C43.679 99.5789 42.278 100.096 41.335 101.029C40.4264 101.929 39.9485 103.202 39.9485 104.557C39.9485 105.907 40.4319 107.18 41.335 108.078C42.2788 109.017 43.6749 109.537 45.1378 109.537V111.317ZM24.8379 97.8273C23.3522 97.8273 21.6644 98.1051 20.2302 98.7456C18.9066 99.336 17.8232 100.291 17.8232 101.874C17.8226 103.3 18.7289 104.135 18.7044 104.112C19.0899 104.467 19.7105 105.071 21.333 105.426C22.0582 105.584 23.6085 105.828 25.1524 105.989C26.6849 106.151 28.1931 106.304 28.8073 106.46C29.2954 106.584 30.1152 106.753 30.1152 107.673C30.1152 108.589 29.2515 108.868 29.1014 108.929C28.9514 108.988 27.9153 109.463 26.0528 109.463C24.6776 109.463 23.0244 109.05 22.4218 108.834C21.7272 108.587 20.9985 108.26 20.3188 107.43C20.1497 107.224 19.8831 106.658 19.8831 106.098H18.1974V110.821H20.071V110.182C20.071 110.11 20.1619 109.811 20.4764 109.953C20.8677 110.131 22.0166 110.588 23.2178 110.839C24.2026 111.045 24.8377 111.193 26.0622 111.193C28.0599 111.193 29.1331 110.867 29.8751 110.655C30.574 110.455 31.4377 110.096 32.1393 109.537C32.5193 109.234 33.3525 108.459 33.3525 107.051C33.3525 105.7 32.6274 104.862 32.3722 104.607C32.0247 104.259 31.6003 103.99 31.1579 103.782C30.7727 103.601 30.1645 103.383 29.6669 103.262C28.7011 103.024 26.5174 102.732 25.4731 102.623C24.378 102.508 22.4783 102.351 21.7196 102.116C21.4896 102.045 21.0206 101.822 21.0206 101.277C21.0206 100.89 21.2351 100.562 21.6589 100.297C22.3317 99.8754 23.6907 99.6134 25.1073 99.6134C26.7821 99.6073 28.2003 99.9901 29.1025 100.393C29.4094 100.53 29.7683 100.727 30.0535 100.96C30.3753 101.222 30.8269 101.767 30.9903 102.527H32.5037V98.4166H30.8139V98.8944C30.8139 99.0486 30.6545 99.249 30.3532 99.0834C29.597 98.6867 27.4592 97.8309 24.8379 97.8273ZM61.8699 98.5744L70.1131 106.012L70.0285 101.004C70.0201 100.348 69.8991 100.074 69.1888 100.074H67.6388V98.5756H74.687V100.074H73.1751C72.4506 100.074 72.4049 100.305 72.3961 101.004L72.5239 110.573H70.1102L60.6156 102.101L60.6176 108.114C60.6259 108.767 60.6566 109.075 61.3301 109.075H63.0229V110.572H56.1009V109.075H57.7191C58.3235 109.075 58.2994 108.499 58.2994 108.08V101.061C58.2994 100.608 58.2358 100.075 57.2869 100.075H55.9739V98.5744H61.8699ZM82.741 109.072C82.8072 109.072 83.1013 109.064 83.1582 109.046C83.321 108.996 83.4313 108.88 83.4825 108.759C83.504 108.708 83.5148 108.483 83.5148 108.434L83.5161 106.067C83.5161 106.01 83.5118 105.985 83.4152 105.858C83.309 105.72 79.0975 100.948 78.9047 100.738C78.6653 100.477 78.2449 100.074 77.6064 100.074H76.1418V98.5752H84.4073V100.072H83.4109C83.1804 100.072 83.0272 100.291 83.2241 100.533C83.2241 100.533 86.005 103.859 86.0313 103.894C86.0572 103.93 86.0794 103.938 86.1149 103.906C86.1496 103.873 88.9655 100.564 88.9877 100.538C89.1217 100.377 89.0308 100.074 88.7422 100.074H87.72V98.5752H94.4944V100.074H92.9809C92.4321 100.074 92.2086 100.175 91.7953 100.642C91.6063 100.856 87.3499 105.713 87.2341 105.845C87.1735 105.914 87.1787 106.01 87.1787 106.067V108.434C87.1787 108.482 87.1894 108.707 87.211 108.757C87.2623 108.879 87.3732 108.995 87.5358 109.045C87.5929 109.063 87.8829 109.071 87.9489 109.071H89.4974V110.57H81.2741V109.071L82.741 109.072Z" fill="black"/>
</g>
<g clip-path="url(#clip3_56_132)">
<path d="M165.777 91.994C158.233 91.994 152.117 98.183 152.117 105.817C152.117 113.452 158.233 119.641 165.777 119.641C173.321 119.641 179.436 113.452 179.436 105.817C179.436 98.1835 173.321 91.994 165.777 91.994ZM172.041 111.931C171.795 112.338 171.271 112.466 170.87 112.218C167.662 110.234 163.625 109.786 158.87 110.885C158.412 110.991 157.956 110.701 157.851 110.237C157.746 109.773 158.032 109.311 158.492 109.206C163.695 108.002 168.158 108.52 171.758 110.746C172.159 110.996 172.287 111.525 172.041 111.931ZM173.712 108.168C173.404 108.675 172.748 108.834 172.248 108.523C168.577 106.239 162.979 105.578 158.637 106.912C158.073 107.084 157.478 106.763 157.308 106.194C157.138 105.624 157.455 105.023 158.018 104.849C162.978 103.326 169.145 104.064 173.362 106.686C173.862 106.998 174.021 107.662 173.712 108.168ZM173.856 104.248C169.453 101.602 162.19 101.359 157.987 102.65C157.312 102.857 156.598 102.471 156.394 101.788C156.189 101.105 156.57 100.383 157.246 100.175C162.07 98.693 170.091 98.9794 175.16 102.024C175.767 102.389 175.966 103.183 175.606 103.796C175.247 104.411 174.461 104.613 173.856 104.248ZM189.28 104.755C186.921 104.186 186.501 103.787 186.501 102.947C186.501 102.154 187.239 101.621 188.336 101.621C189.4 101.621 190.454 102.026 191.56 102.86C191.593 102.886 191.635 102.896 191.676 102.889C191.718 102.883 191.754 102.86 191.778 102.825L192.93 101.182C192.977 101.115 192.964 101.022 192.901 100.97C191.585 99.9014 190.103 99.3819 188.371 99.3819C185.825 99.3819 184.046 100.928 184.046 103.141C184.046 105.514 185.58 106.354 188.232 107.003C190.489 107.529 190.87 107.97 190.87 108.758C190.87 109.631 190.099 110.173 188.86 110.173C187.483 110.173 186.36 109.704 185.104 108.603C185.073 108.576 185.03 108.564 184.991 108.566C184.949 108.569 184.911 108.589 184.885 108.621L183.594 110.176C183.54 110.241 183.546 110.337 183.609 110.393C185.07 111.713 186.868 112.411 188.808 112.411C191.552 112.411 193.325 110.893 193.325 108.545C193.33 106.562 192.157 105.465 189.285 104.758L189.28 104.755ZM199.533 102.402C198.343 102.402 197.368 102.876 196.563 103.847V102.754C196.563 102.667 196.494 102.597 196.409 102.597H194.297C194.212 102.597 194.143 102.667 194.143 102.754V114.903C194.143 114.989 194.212 115.06 194.297 115.06H196.409C196.494 115.06 196.563 114.989 196.563 114.903V111.068C197.368 111.982 198.344 112.428 199.533 112.428C201.743 112.428 203.98 110.707 203.98 107.416C203.983 104.124 201.745 102.401 199.535 102.401L199.533 102.402ZM201.524 107.416C201.524 109.091 200.504 110.261 199.044 110.261C197.6 110.261 196.51 109.038 196.51 107.416C196.51 105.793 197.6 104.57 199.044 104.57C200.481 104.57 201.524 105.766 201.524 107.416ZM209.714 102.402C206.868 102.402 204.638 104.619 204.638 107.451C204.638 110.252 206.853 112.447 209.679 112.447C212.535 112.447 214.772 110.237 214.772 107.415C214.772 104.604 212.551 102.402 209.714 102.402ZM209.714 110.278C208.2 110.278 207.059 109.047 207.059 107.415C207.059 105.776 208.161 104.586 209.679 104.586C211.203 104.586 212.352 105.817 212.352 107.45C212.352 109.089 211.242 110.278 209.714 110.278ZM220.85 102.597H218.526V100.193C218.526 100.106 218.457 100.036 218.372 100.036H216.26C216.175 100.036 216.105 100.106 216.105 100.193V102.597H215.09C215.005 102.597 214.936 102.667 214.936 102.754V104.59C214.936 104.677 215.005 104.747 215.09 104.747H216.105V109.5C216.105 111.42 217.05 112.394 218.913 112.394C219.67 112.394 220.299 112.236 220.891 111.896C220.939 111.868 220.969 111.816 220.969 111.76V110.011C220.969 109.957 220.941 109.906 220.896 109.878C220.85 109.849 220.792 109.847 220.745 109.871C220.338 110.078 219.945 110.174 219.506 110.174C218.828 110.174 218.526 109.862 218.526 109.164V104.748H220.85C220.935 104.748 221.004 104.678 221.004 104.591V102.755C221.007 102.668 220.938 102.598 220.852 102.598L220.85 102.597ZM228.946 102.606V102.311C228.946 101.442 229.276 101.055 230.014 101.055C230.454 101.055 230.808 101.143 231.204 101.277C231.252 101.293 231.303 101.285 231.343 101.255C231.384 101.226 231.407 101.178 231.407 101.128V99.3272C231.407 99.2584 231.363 99.1975 231.297 99.1772C230.879 99.0512 230.344 98.922 229.542 98.922C227.592 98.922 226.561 100.034 226.561 102.135V102.588H225.546C225.461 102.588 225.391 102.658 225.391 102.744V104.59C225.391 104.676 225.461 104.747 225.546 104.747H226.561V112.078C226.561 112.164 226.63 112.234 226.715 112.234H228.827C228.912 112.234 228.981 112.164 228.981 112.078V104.747H230.953L233.973 112.076C233.63 112.846 233.293 112.999 232.833 112.999C232.461 112.999 232.069 112.887 231.669 112.665C231.631 112.644 231.586 112.641 231.546 112.654C231.505 112.668 231.471 112.698 231.454 112.738L230.738 114.327C230.704 114.402 230.734 114.49 230.805 114.529C231.552 114.939 232.227 115.114 233.06 115.114C234.62 115.114 235.482 114.378 236.241 112.401L239.905 102.82C239.923 102.772 239.918 102.718 239.889 102.675C239.86 102.632 239.813 102.607 239.762 102.607H237.563C237.497 102.607 237.438 102.649 237.417 102.712L235.165 109.222L232.698 102.708C232.676 102.647 232.618 102.607 232.554 102.607L228.946 102.606ZM224.252 102.597H222.14C222.055 102.597 221.986 102.667 221.986 102.754V112.078C221.986 112.164 222.055 112.234 222.14 112.234H224.252C224.337 112.234 224.407 112.164 224.407 112.078V102.754C224.407 102.713 224.391 102.673 224.362 102.643C224.332 102.614 224.293 102.597 224.252 102.597ZM223.208 98.3515C222.372 98.3515 221.693 99.0369 221.693 99.8835C221.693 100.731 222.372 101.417 223.208 101.417C224.044 101.417 224.723 100.731 224.723 99.8835C224.723 99.0371 224.044 98.3515 223.209 98.3515H223.208ZM241.708 105.595C240.872 105.595 240.222 104.916 240.222 104.091C240.222 103.266 240.881 102.579 241.716 102.579C242.552 102.579 243.202 103.258 243.202 104.082C243.202 104.907 242.543 105.595 241.708 105.595ZM241.716 102.728C240.955 102.728 240.379 103.341 240.379 104.091C240.379 104.84 240.951 105.444 241.709 105.444C242.47 105.444 243.046 104.832 243.046 104.082C243.046 103.333 242.473 102.728 241.716 102.728ZM242.046 104.237L242.466 104.832H242.112L241.733 104.286H241.408V104.832H241.111V103.254H241.807C242.169 103.254 242.408 103.441 242.408 103.757C242.409 104.016 242.261 104.174 242.047 104.237L242.046 104.237ZM241.795 103.524H241.408V104.024H241.795C241.988 104.024 242.103 103.928 242.103 103.774C242.103 103.611 241.987 103.524 241.795 103.524Z" fill="black"/>
</g>
<g clip-path="url(#clip4_56_132)">
<path d="M307.164 96.786H310.73V108.098C310.73 114.05 306.928 116.139 301.412 116.139C295.915 116.139 292.113 114.05 292.113 108.098V97.2393C292.113 96.924 292.271 96.786 292.586 96.786H296.152V107.921C296.152 111.488 297.728 112.966 301.412 112.966C305.115 112.966 306.691 111.488 306.691 107.921V97.2393C306.691 96.924 306.849 96.786 307.164 96.786ZM347.53 99.8801V104.649H356.552C356.71 104.649 356.769 104.728 356.71 104.886L355.725 107.33C355.626 107.546 355.488 107.645 355.193 107.645H349.894C348.16 107.645 347.53 108.177 347.53 109.34V112.71H359.744C359.901 112.71 359.96 112.789 359.901 112.946L358.877 115.489C358.778 115.705 358.64 115.804 358.345 115.804H344.969C343.944 115.804 343.55 115.449 343.55 114.681V98.1064C343.55 97.1802 344.062 96.786 345.402 96.786H359.744C359.901 96.786 359.96 96.8648 359.901 97.0028L358.877 99.5648C358.778 99.7816 358.64 99.8801 358.345 99.8801H347.53ZM336.202 110.542C336.202 114.346 333.523 115.804 329.76 115.804H319.792C318.748 115.804 318.373 115.449 318.373 114.681V98.1064C318.373 97.1802 318.866 96.786 320.225 96.786H328.322C331.868 96.786 335.296 97.3969 335.296 101.614C335.296 103.427 334.646 104.965 333.089 105.773C335.237 106.344 336.202 108.276 336.202 110.542ZM322.294 104.708H328.617C330.706 104.708 331.297 103.9 331.297 102.245C331.297 100.59 330.706 99.8013 328.617 99.8013H322.294V104.708ZM332.203 110.187C332.203 108.433 331.592 107.566 329.346 107.566H324.677C322.944 107.566 322.294 108.098 322.294 109.261V112.789H329.346C331.592 112.789 332.203 111.922 332.203 110.187ZM384.605 115.804H380.98C380.685 115.804 380.567 115.686 380.448 115.489L376.607 108.551H373.081C371.347 108.551 370.697 109.084 370.697 110.246V115.804H367.23C366.914 115.804 366.757 115.646 366.757 115.351V98.1064C366.757 97.1802 367.269 96.786 368.609 96.786H376.745C381.492 96.786 384.349 98.0276 384.349 102.639C384.349 106.206 382.635 107.606 380.507 108.157L384.782 115.469C384.861 115.587 384.861 115.804 384.605 115.804ZM380.35 102.718C380.35 100.787 379.818 99.8407 377.336 99.8407H370.697V105.595H377.336C379.818 105.595 380.35 104.669 380.35 102.718Z" fill="black"/>
</g>
<defs>
<clipPath id="clip0_56_132">
<rect width="113" height="47" fill="white" transform="translate(0.25 0.912476)"/>
</clipPath>
<clipPath id="clip1_56_132">
<rect width="113" height="47" fill="white" transform="translate(141.25 0.912476)"/>
</clipPath>
<clipPath id="clip2_56_132">
<rect width="113" height="47" fill="white" transform="translate(282.25 0.912476)"/>
</clipPath>
<clipPath id="clip3_56_132">
<rect width="113" height="47" fill="white" transform="translate(141 82.9875)"/>
</clipPath>
<clipPath id="clip4_56_132">
<rect width="114" height="47" fill="white" transform="translate(281.75 82.9625)"/>
</clipPath>
</defs>
</svg>
