<svg width="430" height="480" viewBox="0 0 430 480" fill="none" xmlns="http://www.w3.org/2000/svg">
<rect width="430" height="480" fill="#F6F7F8"/>
<g opacity="0.5">
<path d="M330.75 199C330.75 213.49 318.997 226.675 299.842 236.253C280.701 245.823 254.241 251.75 225 251.75C195.759 251.75 169.299 245.823 150.158 236.253C131.003 226.675 119.25 213.49 119.25 199C119.25 184.51 131.003 171.325 150.158 161.747C169.299 152.177 195.759 146.25 225 146.25C254.241 146.25 280.701 152.177 299.842 161.747C318.997 171.325 330.75 184.51 330.75 199Z" stroke="#232323" stroke-width="0.5"/>
<path d="M330.75 204.889C330.75 219.379 318.997 232.564 299.842 242.142C280.701 251.712 254.241 257.639 225 257.639C195.759 257.639 169.299 251.712 150.158 242.142C131.003 232.564 119.25 219.379 119.25 204.889C119.25 190.399 131.003 177.214 150.158 167.636C169.299 158.066 195.759 152.139 225 152.139C254.241 152.139 280.701 158.066 299.842 167.636C318.997 177.214 330.75 190.399 330.75 204.889Z" stroke="#232323" stroke-width="0.5"/>
<path d="M330.75 210.778C330.75 225.268 318.997 238.453 299.842 248.031C280.701 257.601 254.241 263.528 225 263.528C195.759 263.528 169.299 257.601 150.158 248.031C131.003 238.453 119.25 225.268 119.25 210.778C119.25 196.288 131.003 183.103 150.158 173.525C169.299 163.954 195.759 158.028 225 158.028C254.241 158.028 280.701 163.954 299.842 173.525C318.997 183.103 330.75 196.288 330.75 210.778Z" stroke="#232323" stroke-width="0.5"/>
<path d="M330.75 216.667C330.75 231.156 318.997 244.342 299.842 253.92C280.701 263.49 254.241 269.417 225 269.417C195.759 269.417 169.299 263.49 150.158 253.92C131.003 244.342 119.25 231.156 119.25 216.667C119.25 202.177 131.003 188.991 150.158 179.414C169.299 169.843 195.759 163.917 225 163.917C254.241 163.917 280.701 169.843 299.842 179.414C318.997 188.991 330.75 202.177 330.75 216.667Z" stroke="#232323" stroke-width="0.5"/>
<path d="M330.75 222.556C330.75 237.045 318.997 250.231 299.842 259.809C280.701 269.379 254.241 275.306 225 275.306C195.759 275.306 169.299 269.379 150.158 259.809C131.003 250.231 119.25 237.045 119.25 222.556C119.25 208.066 131.003 194.88 150.158 185.302C169.299 175.732 195.759 169.806 225 169.806C254.241 169.806 280.701 175.732 299.842 185.302C318.997 194.88 330.75 208.066 330.75 222.556Z" stroke="#232323" stroke-width="0.5"/>
<path d="M330.75 228.444C330.75 242.934 318.997 256.12 299.842 265.698C280.701 275.268 254.241 281.194 225 281.194C195.759 281.194 169.299 275.268 150.158 265.698C131.003 256.12 119.25 242.934 119.25 228.444C119.25 213.955 131.003 200.769 150.158 191.191C169.299 181.621 195.759 175.694 225 175.694C254.241 175.694 280.701 181.621 299.842 191.191C318.997 200.769 330.75 213.955 330.75 228.444Z" stroke="#232323" stroke-width="0.5"/>
<path d="M330.75 234.333C330.75 248.823 318.997 262.009 299.842 271.586C280.701 281.157 254.241 287.083 225 287.083C195.759 287.083 169.299 281.157 150.158 271.586C131.003 262.009 119.25 248.823 119.25 234.333C119.25 219.844 131.003 206.658 150.158 197.08C169.299 187.51 195.759 181.583 225 181.583C254.241 181.583 280.701 187.51 299.842 197.08C318.997 206.658 330.75 219.844 330.75 234.333Z" stroke="#232323" stroke-width="0.5"/>
<path d="M330.75 240.222C330.75 254.712 318.997 267.897 299.842 277.475C280.701 287.046 254.241 292.972 225 292.972C195.759 292.972 169.299 287.046 150.158 277.475C131.003 267.897 119.25 254.712 119.25 240.222C119.25 225.732 131.003 212.547 150.158 202.969C169.299 193.399 195.759 187.472 225 187.472C254.241 187.472 280.701 193.399 299.842 202.969C318.997 212.547 330.75 225.732 330.75 240.222Z" stroke="#232323" stroke-width="0.5"/>
<path d="M330.75 246.111C330.75 260.601 318.997 273.786 299.842 283.364C280.701 292.934 254.241 298.861 225 298.861C195.759 298.861 169.299 292.934 150.158 283.364C131.003 273.786 119.25 260.601 119.25 246.111C119.25 231.621 131.003 218.436 150.158 208.858C169.299 199.288 195.759 193.361 225 193.361C254.241 193.361 280.701 199.288 299.842 208.858C318.997 218.436 330.75 231.621 330.75 246.111Z" stroke="#232323" stroke-width="0.5"/>
<path d="M330.75 252C330.75 266.49 318.997 279.675 299.842 289.253C280.701 298.823 254.241 304.75 225 304.75C195.759 304.75 169.299 298.823 150.158 289.253C131.003 279.675 119.25 266.49 119.25 252C119.25 237.51 131.003 224.325 150.158 214.747C169.299 205.177 195.759 199.25 225 199.25C254.241 199.25 280.701 205.177 299.842 214.747C318.997 224.325 330.75 237.51 330.75 252Z" stroke="#232323" stroke-width="0.5"/>
<path d="M330.75 257.889C330.75 272.379 318.997 285.564 299.842 295.142C280.701 304.712 254.241 310.639 225 310.639C195.759 310.639 169.299 304.712 150.158 295.142C131.003 285.564 119.25 272.379 119.25 257.889C119.25 243.399 131.003 230.214 150.158 220.636C169.299 211.066 195.759 205.139 225 205.139C254.241 205.139 280.701 211.066 299.842 220.636C318.997 230.214 330.75 243.399 330.75 257.889Z" stroke="#232323" stroke-width="0.5"/>
<path d="M330.75 263.778C330.75 278.268 318.997 291.453 299.842 301.031C280.701 310.601 254.241 316.528 225 316.528C195.759 316.528 169.299 310.601 150.158 301.031C131.003 291.453 119.25 278.268 119.25 263.778C119.25 249.288 131.003 236.103 150.158 226.525C169.299 216.954 195.759 211.028 225 211.028C254.241 211.028 280.701 216.954 299.842 226.525C318.997 236.103 330.75 249.288 330.75 263.778Z" stroke="#232323" stroke-width="0.5"/>
<path d="M330.75 269.667C330.75 284.156 318.997 297.342 299.842 306.92C280.701 316.49 254.241 322.417 225 322.417C195.759 322.417 169.299 316.49 150.158 306.92C131.003 297.342 119.25 284.156 119.25 269.667C119.25 255.177 131.003 241.991 150.158 232.414C169.299 222.843 195.759 216.917 225 216.917C254.241 216.917 280.701 222.843 299.842 232.414C318.997 241.991 330.75 255.177 330.75 269.667Z" stroke="#232323" stroke-width="0.5"/>
<path d="M330.75 275.556C330.75 290.045 318.997 303.231 299.842 312.809C280.701 322.379 254.241 328.306 225 328.306C195.759 328.306 169.299 322.379 150.158 312.809C131.003 303.231 119.25 290.045 119.25 275.556C119.25 261.066 131.003 247.88 150.158 238.302C169.299 228.732 195.759 222.806 225 222.806C254.241 222.806 280.701 228.732 299.842 238.302C318.997 247.88 330.75 261.066 330.75 275.556Z" stroke="#232323" stroke-width="0.5"/>
<path d="M330.75 281.444C330.75 295.934 318.997 309.12 299.842 318.698C280.701 328.268 254.241 334.194 225 334.194C195.759 334.194 169.299 328.268 150.158 318.698C131.003 309.12 119.25 295.934 119.25 281.444C119.25 266.955 131.003 253.769 150.158 244.191C169.299 234.621 195.759 228.694 225 228.694C254.241 228.694 280.701 234.621 299.842 244.191C318.997 253.769 330.75 266.955 330.75 281.444Z" stroke="#232323" stroke-width="0.5"/>
</g>
</svg>
