<svg width="93" height="12" viewBox="0 0 93 12" fill="currentColor" xmlns="http://www.w3.org/2000/svg">
<g clip-path="url(#clip0_61_208)">
<path d="M30.3552 7.65667H24.1955V11.3574H21.8896V0.191406H30.3552V7.65667ZM24.1955 2.36081V5.47135H28.0494V2.36081H24.1955Z" fill="#070707"/>
<path d="M41.4634 0.191406V6.23702H38.2384V7.5929H35.9325V6.23702H32.6914V4.06762H39.1575V2.36081H32.6914V0.191406H41.4634ZM36.0293 9.21993C36.3088 8.96473 36.6635 8.83713 37.0935 8.83713C37.5235 8.83713 37.8729 8.96473 38.1416 9.21993C38.4211 9.47519 38.5609 9.80485 38.5609 10.209C38.5609 10.6024 38.4211 10.9267 38.1416 11.182C37.8729 11.4266 37.5235 11.5488 37.0935 11.5488C36.6635 11.5488 36.3088 11.4266 36.0293 11.182C35.7498 10.9267 35.61 10.6024 35.61 10.209C35.61 9.80485 35.7498 9.47519 36.0293 9.21993Z" fill="#070707"/>
<path d="M49.305 0C50.122 0 50.8906 0.148881 51.6108 0.446642C52.3418 0.733766 52.9653 1.13255 53.4813 1.643C54.0081 2.15345 54.4219 2.77024 54.7229 3.49338C55.0347 4.20587 55.1906 4.96623 55.1906 5.77446C55.1906 6.42314 55.0938 7.04526 54.9003 7.64074C54.7068 8.22566 54.4273 8.75737 54.0618 9.23589C53.7071 9.70383 53.2878 10.1133 52.8041 10.4642C52.3311 10.8151 51.7936 11.0863 51.1916 11.2777C50.5896 11.4585 49.9607 11.5489 49.305 11.5489C48.2192 11.5489 47.2249 11.299 46.3219 10.7991C45.4189 10.2993 44.7094 9.60811 44.1934 8.72549C43.6882 7.83217 43.4355 6.84851 43.4355 5.77446C43.4355 4.70037 43.6882 3.72201 44.1934 2.83937C44.7094 1.94608 45.4189 1.24953 46.3219 0.74972C47.2249 0.249906 48.2192 0 49.305 0ZM51.8366 3.1903C51.1701 2.5097 50.3262 2.1694 49.305 2.1694C48.2945 2.1694 47.4506 2.5097 46.7734 3.1903C46.0962 3.87089 45.7575 4.73227 45.7575 5.77446C45.7575 6.81663 46.0962 7.678 46.7734 8.35857C47.4506 9.0392 48.2945 9.37949 49.305 9.37949C50.3262 9.37949 51.1701 9.0392 51.8366 8.35857C52.5138 7.678 52.8525 6.81663 52.8525 5.77446C52.8525 4.73227 52.5138 3.87089 51.8366 3.1903Z" fill="#070707"/>
<path d="M65.0638 2.36081H59.4526V4.54616H65.0638V11.3574H57.1465V9.18805H62.7579V6.73153H57.1465V0.191406H65.0638V2.36081Z" fill="#070707"/>
<path d="M78.9412 11.3574H76.6353V3.50931L73.2815 8.03953H73.0718L69.7336 3.50931V11.3574H67.4121V0.191406H70.0727L73.1845 4.38665L76.2806 0.191406H78.9412V11.3574Z" fill="#070707"/>
<path d="M86.7825 0C87.5993 0 88.3681 0.148881 89.0884 0.446642C89.8191 0.733766 90.443 1.13255 90.9588 1.643C91.4856 2.15345 91.8992 2.77024 92.2007 3.49338C92.5121 4.20587 92.668 4.96623 92.668 5.77446C92.668 6.42314 92.5716 7.04526 92.3781 7.64074C92.1846 8.22566 91.905 8.75737 91.5393 9.23589C91.1847 9.70383 90.7653 10.1133 90.2818 10.4642C89.8087 10.8151 89.271 11.0863 88.6691 11.2777C88.0672 11.4585 87.4381 11.5489 86.7825 11.5489C85.6965 11.5489 84.7024 11.299 83.7995 10.7991C82.8967 10.2993 82.1868 9.60811 81.6709 8.72549C81.1655 7.83217 80.9131 6.84851 80.9131 5.77446C80.9131 4.70037 81.1655 3.72201 81.6709 2.83937C82.1868 1.94608 82.8967 1.24953 83.7995 0.74972C84.7024 0.249906 85.6965 0 86.7825 0ZM89.3143 3.1903C88.6477 2.5097 87.8037 2.1694 86.7825 2.1694C85.7722 2.1694 84.9283 2.5097 84.2507 3.1903C83.5737 3.87089 83.2352 4.73227 83.2352 5.77446C83.2352 6.81663 83.5737 7.678 84.2507 8.35857C84.9283 9.0392 85.7722 9.37949 86.7825 9.37949C87.8037 9.37949 88.6477 9.0392 89.3143 8.35857C89.9913 7.678 90.3298 6.81663 90.3298 5.77446C90.3298 4.73227 89.9913 3.87089 89.3143 3.1903Z" fill="#070707"/>
<path d="M4.27877 6.07506C4.17434 5.99483 4.02821 5.99506 3.924 6.07552L1.02605 8.31261C0.782456 8.50066 0.450744 8.23003 0.591021 7.95769L3.94223 1.45147C4.02466 1.29145 4.23412 1.24545 4.37725 1.35594L9.58448 5.37577C9.68921 5.45663 9.83622 5.45637 9.94066 5.37514L12.8321 3.12639C13.0755 2.93713 13.4085 3.20787 13.2679 3.48072L9.92136 9.97786C9.83911 10.1376 9.63012 10.1838 9.48698 10.0739L4.27877 6.07506Z" fill="#FF5A14"/>
</g>
<defs>
<clipPath id="clip0_61_208">
<rect width="93" height="12" fill="white"/>
</clipPath>
</defs>
</svg>
